<mxfile host="app.diagrams.net" modified="2024-01-30T17:06:05.437Z" agent="Mozilla/5.0 (Windows NT 10.0; Win64; x64) AppleWebKit/537.36 (KHTML, like Gecko) Chrome/120.0.0.0 Safari/537.36 OPR/106.0.0.0" etag="dox2GUimVyYCOB0qY5p8" version="23.0.2" type="device">
  <diagram name="Page-1" id="2cc2dc42-3aac-f2a9-1cec-7a8b7cbee084">
    <mxGraphModel dx="1627" dy="3398" grid="1" gridSize="10" guides="1" tooltips="1" connect="1" arrows="1" fold="1" page="1" pageScale="1" pageWidth="1100" pageHeight="850" background="none" math="0" shadow="0">
      <root>
        <mxCell id="0" />
        <mxCell id="1" parent="0" />
        <mxCell id="7026571954dc6520-1" value="j" style="strokeWidth=1;shadow=0;dashed=0;align=center;html=1;shape=mxgraph.mockup.containers.browserWindow;rSize=0;strokeColor=#666666;mainText=,;recursiveResize=0;rounded=0;labelBackgroundColor=none;fontFamily=Verdana;fontSize=12" parent="1" vertex="1">
          <mxGeometry x="13" y="144" width="1075" height="915" as="geometry" />
        </mxCell>
        <mxCell id="PBdtkd81JDV2ZIQKBgxu-104" value="" style="rounded=0;whiteSpace=wrap;html=1;" vertex="1" parent="7026571954dc6520-1">
          <mxGeometry x="216" y="190" width="614" height="210" as="geometry" />
        </mxCell>
        <mxCell id="t-0MSepDz_Ys8Jjh8UIl-3" value="" style="rounded=0;whiteSpace=wrap;html=1;" parent="7026571954dc6520-1" vertex="1">
          <mxGeometry x="11" y="405" width="523" height="200" as="geometry" />
        </mxCell>
        <mxCell id="7026571954dc6520-2" value="Page 3 : cv" style="strokeWidth=1;shadow=0;dashed=0;align=center;html=1;shape=mxgraph.mockup.containers.anchor;fontSize=17;fontColor=#666666;align=left;" parent="7026571954dc6520-1" vertex="1">
          <mxGeometry x="60" y="12" width="110" height="26" as="geometry" />
        </mxCell>
        <mxCell id="7026571954dc6520-3" value="http://127.0.0.1:8000/cv" style="strokeWidth=1;shadow=0;dashed=0;align=center;html=1;shape=mxgraph.mockup.containers.anchor;rSize=0;fontSize=17;fontColor=#666666;align=left;" parent="7026571954dc6520-1" vertex="1">
          <mxGeometry x="130" y="60" width="250" height="26" as="geometry" />
        </mxCell>
        <mxCell id="7026571954dc6520-4" value="&lt;font style=&quot;font-size: 24px;&quot;&gt;Titre:&lt;font style=&quot;font-size: 24px;&quot;&gt;Poste de travail cherché&lt;/font&gt;&lt;/font&gt;" style="text;html=1;points=[];align=left;verticalAlign=top;spacingTop=-4;fontSize=30;fontFamily=Verdana" parent="7026571954dc6520-1" vertex="1">
          <mxGeometry x="344" y="180" width="340" height="50" as="geometry" />
        </mxCell>
        <mxCell id="7026571954dc6520-7" value="&lt;font style=&quot;font-size: 14px;&quot;&gt;Description de moi blablablal&lt;br&gt;&lt;/font&gt;" style="text;html=1;points=[];align=left;verticalAlign=top;spacingTop=-4;fontSize=12;fontFamily=Verdana;whiteSpace=wrap;" parent="7026571954dc6520-1" vertex="1">
          <mxGeometry x="415" y="260" width="240" height="30" as="geometry" />
        </mxCell>
        <mxCell id="DlKppZ8F-c1nNK-8nuvz-2" value="&lt;font style=&quot;font-size: 16px;&quot;&gt;Photo moi&lt;/font&gt;" style="ellipse;whiteSpace=wrap;html=1;aspect=fixed;" parent="7026571954dc6520-1" vertex="1">
          <mxGeometry x="463" y="280" width="120" height="120" as="geometry" />
        </mxCell>
        <mxCell id="DlKppZ8F-c1nNK-8nuvz-4" value="" style="rounded=0;whiteSpace=wrap;html=1;" parent="7026571954dc6520-1" vertex="1">
          <mxGeometry y="105" width="1070" height="75" as="geometry" />
        </mxCell>
        <mxCell id="DlKppZ8F-c1nNK-8nuvz-5" value="&lt;font style=&quot;font-size: 32px;&quot;&gt;Navbar&lt;/font&gt;" style="rounded=0;whiteSpace=wrap;html=1;" parent="7026571954dc6520-1" vertex="1">
          <mxGeometry x="5" y="112.5" width="145" height="60" as="geometry" />
        </mxCell>
        <mxCell id="DlKppZ8F-c1nNK-8nuvz-6" value="" style="triangle;whiteSpace=wrap;html=1;rotation=90;fillColor=#647687;fontColor=#ffffff;strokeColor=#314354;" parent="7026571954dc6520-1" vertex="1">
          <mxGeometry x="565" y="137.5" width="10" height="10" as="geometry" />
        </mxCell>
        <mxCell id="DlKppZ8F-c1nNK-8nuvz-7" value="&lt;font style=&quot;font-size: 20px;&quot;&gt;DropDown&lt;/font&gt;" style="rounded=0;whiteSpace=wrap;html=1;" parent="7026571954dc6520-1" vertex="1">
          <mxGeometry x="463" y="112.5" width="102" height="60" as="geometry" />
        </mxCell>
        <mxCell id="DlKppZ8F-c1nNK-8nuvz-8" value="&lt;font style=&quot;font-size: 22px;&quot;&gt;Page supl 1&lt;/font&gt;" style="rounded=0;whiteSpace=wrap;html=1;" parent="7026571954dc6520-1" vertex="1">
          <mxGeometry x="177" y="112.5" width="120" height="60" as="geometry" />
        </mxCell>
        <mxCell id="DlKppZ8F-c1nNK-8nuvz-9" value="&lt;font style=&quot;font-size: 22px;&quot;&gt;Page supl 2 (cv)&lt;/font&gt;" style="rounded=0;whiteSpace=wrap;html=1;" parent="7026571954dc6520-1" vertex="1">
          <mxGeometry x="315" y="112.5" width="120" height="60" as="geometry" />
        </mxCell>
        <mxCell id="DlKppZ8F-c1nNK-8nuvz-10" value="&lt;font style=&quot;font-size: 20px;&quot;&gt;Nom prénom&lt;/font&gt;" style="text;html=1;points=[];align=left;verticalAlign=top;spacingTop=-4;fontSize=12;fontFamily=Verdana;whiteSpace=wrap;" parent="7026571954dc6520-1" vertex="1">
          <mxGeometry x="455.5" y="230" width="135" height="40" as="geometry" />
        </mxCell>
        <mxCell id="DlKppZ8F-c1nNK-8nuvz-12" value="Section 2" style="text;html=1;points=[];align=left;verticalAlign=top;spacingTop=-4;fontSize=15;fontFamily=Verdana" parent="7026571954dc6520-1" vertex="1">
          <mxGeometry x="14" y="405" width="170" height="30" as="geometry" />
        </mxCell>
        <mxCell id="t-0MSepDz_Ys8Jjh8UIl-4" value="&lt;font style=&quot;font-size: 18px;&quot;&gt;Titre : savoir être&lt;/font&gt;" style="text;html=1;points=[];align=left;verticalAlign=top;spacingTop=-4;fontSize=15;fontFamily=Verdana" parent="7026571954dc6520-1" vertex="1">
          <mxGeometry x="14" y="425" width="170" height="30" as="geometry" />
        </mxCell>
        <mxCell id="t-0MSepDz_Ys8Jjh8UIl-6" value="Chaque savoir être avec son image associés:&lt;br&gt;&lt;br&gt;blabla : img&amp;nbsp;&lt;br&gt;&lt;br&gt;blabla : img&lt;br&gt;&lt;br&gt;" style="text;html=1;points=[];align=left;verticalAlign=top;spacingTop=-4;fontSize=15;fontFamily=Verdana" parent="7026571954dc6520-1" vertex="1">
          <mxGeometry x="14" y="455" width="513" height="145" as="geometry" />
        </mxCell>
        <mxCell id="t-0MSepDz_Ys8Jjh8UIl-8" value="" style="rounded=0;whiteSpace=wrap;html=1;" parent="7026571954dc6520-1" vertex="1">
          <mxGeometry x="537" y="405" width="523" height="200" as="geometry" />
        </mxCell>
        <mxCell id="t-0MSepDz_Ys8Jjh8UIl-9" value="Section 3" style="text;html=1;points=[];align=left;verticalAlign=top;spacingTop=-4;fontSize=15;fontFamily=Verdana" parent="7026571954dc6520-1" vertex="1">
          <mxGeometry x="540" y="405" width="170" height="30" as="geometry" />
        </mxCell>
        <mxCell id="t-0MSepDz_Ys8Jjh8UIl-10" value="&lt;font style=&quot;font-size: 18px;&quot;&gt;Titre : compétences&lt;/font&gt;" style="text;html=1;points=[];align=left;verticalAlign=top;spacingTop=-4;fontSize=15;fontFamily=Verdana" parent="7026571954dc6520-1" vertex="1">
          <mxGeometry x="540" y="425" width="170" height="30" as="geometry" />
        </mxCell>
        <mxCell id="t-0MSepDz_Ys8Jjh8UIl-11" value="sous titre 1&amp;nbsp;&lt;br&gt;-&lt;br&gt;-&lt;br&gt;sous titre 2&lt;br&gt;-&lt;br&gt;-&lt;br&gt;" style="text;html=1;points=[];align=left;verticalAlign=top;spacingTop=-4;fontSize=15;fontFamily=Verdana" parent="7026571954dc6520-1" vertex="1">
          <mxGeometry x="540" y="455" width="513" height="145" as="geometry" />
        </mxCell>
        <mxCell id="t-0MSepDz_Ys8Jjh8UIl-19" value="" style="rounded=0;whiteSpace=wrap;html=1;" parent="7026571954dc6520-1" vertex="1">
          <mxGeometry x="14" y="615" width="523" height="200" as="geometry" />
        </mxCell>
        <mxCell id="t-0MSepDz_Ys8Jjh8UIl-20" value="Section 4" style="text;html=1;points=[];align=left;verticalAlign=top;spacingTop=-4;fontSize=15;fontFamily=Verdana" parent="7026571954dc6520-1" vertex="1">
          <mxGeometry x="17" y="615" width="170" height="30" as="geometry" />
        </mxCell>
        <mxCell id="t-0MSepDz_Ys8Jjh8UIl-21" value="&lt;font style=&quot;font-size: 18px;&quot;&gt;Titre : Expérience pro&lt;/font&gt;" style="text;html=1;points=[];align=left;verticalAlign=top;spacingTop=-4;fontSize=15;fontFamily=Verdana" parent="7026571954dc6520-1" vertex="1">
          <mxGeometry x="17" y="635" width="170" height="30" as="geometry" />
        </mxCell>
        <mxCell id="t-0MSepDz_Ys8Jjh8UIl-22" value="Expérience 1 en sous titre :&lt;br&gt;- ce que j&#39;ai fais&amp;nbsp;&lt;br&gt;- ce que j&#39;ai fais&lt;br&gt;Expérience 2 en sous titre :&lt;br style=&quot;border-color: var(--border-color);&quot;&gt;- ce que j&#39;ai fais&amp;nbsp;&lt;br style=&quot;border-color: var(--border-color);&quot;&gt;- ce que j&#39;ai fais" style="text;html=1;points=[];align=left;verticalAlign=top;spacingTop=-4;fontSize=15;fontFamily=Verdana" parent="7026571954dc6520-1" vertex="1">
          <mxGeometry x="17" y="665" width="513" height="145" as="geometry" />
        </mxCell>
        <mxCell id="t-0MSepDz_Ys8Jjh8UIl-23" value="" style="rounded=0;whiteSpace=wrap;html=1;" parent="7026571954dc6520-1" vertex="1">
          <mxGeometry x="540" y="615" width="523" height="200" as="geometry" />
        </mxCell>
        <mxCell id="t-0MSepDz_Ys8Jjh8UIl-24" value="Section 5" style="text;html=1;points=[];align=left;verticalAlign=top;spacingTop=-4;fontSize=15;fontFamily=Verdana" parent="7026571954dc6520-1" vertex="1">
          <mxGeometry x="543" y="615" width="170" height="30" as="geometry" />
        </mxCell>
        <mxCell id="t-0MSepDz_Ys8Jjh8UIl-25" value="&lt;font style=&quot;font-size: 18px;&quot;&gt;Titre : Formation&lt;/font&gt;" style="text;html=1;points=[];align=left;verticalAlign=top;spacingTop=-4;fontSize=15;fontFamily=Verdana" parent="7026571954dc6520-1" vertex="1">
          <mxGeometry x="543" y="635" width="170" height="30" as="geometry" />
        </mxCell>
        <mxCell id="t-0MSepDz_Ys8Jjh8UIl-26" value="Sous titre 1 formation actuelle&amp;nbsp;&lt;br&gt;- lieu et établissement&lt;br&gt;&lt;br&gt;Sous titre 2 formation plus récente&amp;nbsp;&lt;br style=&quot;border-color: var(--border-color);&quot;&gt;- lieu et établissement" style="text;html=1;points=[];align=left;verticalAlign=top;spacingTop=-4;fontSize=15;fontFamily=Verdana" parent="7026571954dc6520-1" vertex="1">
          <mxGeometry x="543" y="665" width="513" height="145" as="geometry" />
        </mxCell>
        <mxCell id="t-0MSepDz_Ys8Jjh8UIl-27" value="" style="rounded=0;whiteSpace=wrap;html=1;" parent="7026571954dc6520-1" vertex="1">
          <mxGeometry x="17.5" y="825" width="1042.5" height="75" as="geometry" />
        </mxCell>
        <mxCell id="t-0MSepDz_Ys8Jjh8UIl-29" value="&lt;font style=&quot;&quot;&gt;&lt;span style=&quot;font-size: 18px;&quot;&gt;Pied de page footer :&lt;/span&gt;&lt;br&gt;&lt;font style=&quot;font-size: 16px;&quot;&gt;Creative commons de ma page&lt;/font&gt;&lt;/font&gt;&lt;font style=&quot;font-size: 18px;&quot;&gt;&amp;nbsp;&lt;br&gt;&lt;/font&gt;" style="text;html=1;strokeColor=none;fillColor=none;align=center;verticalAlign=middle;whiteSpace=wrap;rounded=0;" parent="7026571954dc6520-1" vertex="1">
          <mxGeometry x="308.5" y="838.75" width="455" height="47.5" as="geometry" />
        </mxCell>
        <mxCell id="t-0MSepDz_Ys8Jjh8UIl-30" value="j" style="strokeWidth=1;shadow=0;dashed=0;align=center;html=1;shape=mxgraph.mockup.containers.browserWindow;rSize=0;strokeColor=#666666;mainText=,;recursiveResize=0;rounded=0;labelBackgroundColor=none;fontFamily=Verdana;fontSize=12" parent="1" vertex="1">
          <mxGeometry x="13" y="-814" width="1075" height="915" as="geometry" />
        </mxCell>
        <mxCell id="t-0MSepDz_Ys8Jjh8UIl-31" value="" style="rounded=0;whiteSpace=wrap;html=1;" parent="t-0MSepDz_Ys8Jjh8UIl-30" vertex="1">
          <mxGeometry x="11" y="405" width="523" height="200" as="geometry" />
        </mxCell>
        <mxCell id="t-0MSepDz_Ys8Jjh8UIl-32" value="" style="rounded=0;whiteSpace=wrap;html=1;" parent="t-0MSepDz_Ys8Jjh8UIl-30" vertex="1">
          <mxGeometry x="537" y="190" width="523" height="200" as="geometry" />
        </mxCell>
        <mxCell id="t-0MSepDz_Ys8Jjh8UIl-33" value="Page 2: descri" style="strokeWidth=1;shadow=0;dashed=0;align=center;html=1;shape=mxgraph.mockup.containers.anchor;fontSize=17;fontColor=#666666;align=left;" parent="t-0MSepDz_Ys8Jjh8UIl-30" vertex="1">
          <mxGeometry x="60" y="12" width="110" height="26" as="geometry" />
        </mxCell>
        <mxCell id="t-0MSepDz_Ys8Jjh8UIl-34" value="http://127.0.0.1:8000/descri" style="strokeWidth=1;shadow=0;dashed=0;align=center;html=1;shape=mxgraph.mockup.containers.anchor;rSize=0;fontSize=17;fontColor=#666666;align=left;" parent="t-0MSepDz_Ys8Jjh8UIl-30" vertex="1">
          <mxGeometry x="130" y="60" width="250" height="26" as="geometry" />
        </mxCell>
        <mxCell id="t-0MSepDz_Ys8Jjh8UIl-35" value="&lt;font style=&quot;font-size: 24px;&quot;&gt;Titre:&lt;font style=&quot;font-size: 24px;&quot;&gt;Poste de travail cherché&lt;/font&gt;&lt;/font&gt;" style="text;html=1;points=[];align=left;verticalAlign=top;spacingTop=-4;fontSize=30;fontFamily=Verdana" parent="t-0MSepDz_Ys8Jjh8UIl-30" vertex="1">
          <mxGeometry x="30" y="190" width="340" height="50" as="geometry" />
        </mxCell>
        <mxCell id="t-0MSepDz_Ys8Jjh8UIl-36" value="Section 1" style="text;html=1;points=[];align=left;verticalAlign=top;spacingTop=-4;fontSize=15;fontFamily=Verdana" parent="t-0MSepDz_Ys8Jjh8UIl-30" vertex="1">
          <mxGeometry x="537" y="190" width="93" height="20" as="geometry" />
        </mxCell>
        <mxCell id="t-0MSepDz_Ys8Jjh8UIl-37" value="&lt;font style=&quot;font-size: 14px;&quot;&gt;Description de moi blablablal&lt;br&gt;je suis ...&lt;br&gt;j&#39;aimerais ....&lt;br&gt;j&#39;ai ....&lt;br&gt;&lt;/font&gt;" style="text;html=1;points=[];align=left;verticalAlign=top;spacingTop=-4;fontSize=12;fontFamily=Verdana;whiteSpace=wrap;" parent="t-0MSepDz_Ys8Jjh8UIl-30" vertex="1">
          <mxGeometry x="30" y="280" width="240" height="75" as="geometry" />
        </mxCell>
        <mxCell id="t-0MSepDz_Ys8Jjh8UIl-38" value="&lt;font style=&quot;font-size: 16px;&quot;&gt;Photo moi&lt;/font&gt;" style="ellipse;whiteSpace=wrap;html=1;aspect=fixed;" parent="t-0MSepDz_Ys8Jjh8UIl-30" vertex="1">
          <mxGeometry x="370" y="230" width="120" height="120" as="geometry" />
        </mxCell>
        <mxCell id="t-0MSepDz_Ys8Jjh8UIl-39" value="" style="rounded=0;whiteSpace=wrap;html=1;" parent="t-0MSepDz_Ys8Jjh8UIl-30" vertex="1">
          <mxGeometry y="105" width="1070" height="75" as="geometry" />
        </mxCell>
        <mxCell id="t-0MSepDz_Ys8Jjh8UIl-42" value="&lt;font style=&quot;font-size: 32px;&quot;&gt;Navbar&lt;/font&gt;" style="rounded=0;whiteSpace=wrap;html=1;" parent="t-0MSepDz_Ys8Jjh8UIl-30" vertex="1">
          <mxGeometry x="5" y="112.5" width="145" height="60" as="geometry" />
        </mxCell>
        <mxCell id="t-0MSepDz_Ys8Jjh8UIl-43" value="" style="triangle;whiteSpace=wrap;html=1;rotation=90;fillColor=#647687;fontColor=#ffffff;strokeColor=#314354;" parent="t-0MSepDz_Ys8Jjh8UIl-30" vertex="1">
          <mxGeometry x="565" y="137.5" width="10" height="10" as="geometry" />
        </mxCell>
        <mxCell id="t-0MSepDz_Ys8Jjh8UIl-44" value="&lt;font style=&quot;font-size: 20px;&quot;&gt;DropDown&lt;/font&gt;" style="rounded=0;whiteSpace=wrap;html=1;" parent="t-0MSepDz_Ys8Jjh8UIl-30" vertex="1">
          <mxGeometry x="463" y="112.5" width="102" height="60" as="geometry" />
        </mxCell>
        <mxCell id="t-0MSepDz_Ys8Jjh8UIl-45" value="&lt;font style=&quot;font-size: 22px;&quot;&gt;Page supl 1&lt;br&gt;(descri)&lt;br&gt;&lt;/font&gt;" style="rounded=0;whiteSpace=wrap;html=1;" parent="t-0MSepDz_Ys8Jjh8UIl-30" vertex="1">
          <mxGeometry x="177" y="112.5" width="120" height="60" as="geometry" />
        </mxCell>
        <mxCell id="t-0MSepDz_Ys8Jjh8UIl-46" value="&lt;font style=&quot;font-size: 22px;&quot;&gt;Page supl 2&amp;nbsp;&lt;/font&gt;" style="rounded=0;whiteSpace=wrap;html=1;" parent="t-0MSepDz_Ys8Jjh8UIl-30" vertex="1">
          <mxGeometry x="315" y="112.5" width="125" height="60" as="geometry" />
        </mxCell>
        <mxCell id="t-0MSepDz_Ys8Jjh8UIl-47" value="&lt;font style=&quot;font-size: 20px;&quot;&gt;Nom prénom age&amp;nbsp;&lt;/font&gt;" style="text;html=1;points=[];align=left;verticalAlign=top;spacingTop=-4;fontSize=12;fontFamily=Verdana;whiteSpace=wrap;" parent="t-0MSepDz_Ys8Jjh8UIl-30" vertex="1">
          <mxGeometry x="30" y="240" width="240" height="40" as="geometry" />
        </mxCell>
        <mxCell id="t-0MSepDz_Ys8Jjh8UIl-48" value="Section 2" style="text;html=1;points=[];align=left;verticalAlign=top;spacingTop=-4;fontSize=15;fontFamily=Verdana" parent="t-0MSepDz_Ys8Jjh8UIl-30" vertex="1">
          <mxGeometry x="14" y="405" width="170" height="30" as="geometry" />
        </mxCell>
        <mxCell id="t-0MSepDz_Ys8Jjh8UIl-49" value="&lt;font style=&quot;font-size: 18px;&quot;&gt;Titre :&amp;nbsp;&lt;/font&gt;" style="text;html=1;strokeColor=none;fillColor=none;align=center;verticalAlign=middle;whiteSpace=wrap;rounded=0;" parent="t-0MSepDz_Ys8Jjh8UIl-30" vertex="1">
          <mxGeometry x="540" y="210" width="60" height="30" as="geometry" />
        </mxCell>
        <mxCell id="t-0MSepDz_Ys8Jjh8UIl-50" value="- Permis&lt;br&gt;- Langues&lt;br&gt;- coordonnées&lt;br&gt;- adresses" style="text;html=1;points=[];align=left;verticalAlign=top;spacingTop=-4;fontSize=15;fontFamily=Verdana" parent="t-0MSepDz_Ys8Jjh8UIl-30" vertex="1">
          <mxGeometry x="547" y="255" width="233" height="135" as="geometry" />
        </mxCell>
        <mxCell id="t-0MSepDz_Ys8Jjh8UIl-51" value="&lt;font style=&quot;font-size: 18px;&quot;&gt;Titre : savoir être&lt;/font&gt;" style="text;html=1;points=[];align=left;verticalAlign=top;spacingTop=-4;fontSize=15;fontFamily=Verdana" parent="t-0MSepDz_Ys8Jjh8UIl-30" vertex="1">
          <mxGeometry x="14" y="425" width="170" height="30" as="geometry" />
        </mxCell>
        <mxCell id="t-0MSepDz_Ys8Jjh8UIl-52" value="Chaque savoir être avec son image associés:&lt;br&gt;&lt;br&gt;blabla : img&amp;nbsp;&lt;br&gt;&lt;br&gt;blabla : img&lt;br&gt;&lt;br&gt;" style="text;html=1;points=[];align=left;verticalAlign=top;spacingTop=-4;fontSize=15;fontFamily=Verdana" parent="t-0MSepDz_Ys8Jjh8UIl-30" vertex="1">
          <mxGeometry x="14" y="455" width="513" height="145" as="geometry" />
        </mxCell>
        <mxCell id="t-0MSepDz_Ys8Jjh8UIl-53" value="" style="rounded=0;whiteSpace=wrap;html=1;" parent="t-0MSepDz_Ys8Jjh8UIl-30" vertex="1">
          <mxGeometry x="537" y="405" width="523" height="200" as="geometry" />
        </mxCell>
        <mxCell id="t-0MSepDz_Ys8Jjh8UIl-54" value="Section 3" style="text;html=1;points=[];align=left;verticalAlign=top;spacingTop=-4;fontSize=15;fontFamily=Verdana" parent="t-0MSepDz_Ys8Jjh8UIl-30" vertex="1">
          <mxGeometry x="540" y="405" width="170" height="30" as="geometry" />
        </mxCell>
        <mxCell id="t-0MSepDz_Ys8Jjh8UIl-55" value="&lt;font style=&quot;font-size: 18px;&quot;&gt;Titre : compétences&lt;/font&gt;" style="text;html=1;points=[];align=left;verticalAlign=top;spacingTop=-4;fontSize=15;fontFamily=Verdana" parent="t-0MSepDz_Ys8Jjh8UIl-30" vertex="1">
          <mxGeometry x="540" y="425" width="170" height="30" as="geometry" />
        </mxCell>
        <mxCell id="t-0MSepDz_Ys8Jjh8UIl-56" value="sous titre 1&amp;nbsp;&lt;br&gt;-&lt;br&gt;-&lt;br&gt;sous titre 2&lt;br&gt;-&lt;br&gt;-&lt;br&gt;" style="text;html=1;points=[];align=left;verticalAlign=top;spacingTop=-4;fontSize=15;fontFamily=Verdana" parent="t-0MSepDz_Ys8Jjh8UIl-30" vertex="1">
          <mxGeometry x="540" y="455" width="513" height="145" as="geometry" />
        </mxCell>
        <mxCell id="t-0MSepDz_Ys8Jjh8UIl-57" value="" style="rounded=0;whiteSpace=wrap;html=1;" parent="t-0MSepDz_Ys8Jjh8UIl-30" vertex="1">
          <mxGeometry x="14" y="615" width="523" height="200" as="geometry" />
        </mxCell>
        <mxCell id="t-0MSepDz_Ys8Jjh8UIl-58" value="Section 4" style="text;html=1;points=[];align=left;verticalAlign=top;spacingTop=-4;fontSize=15;fontFamily=Verdana" parent="t-0MSepDz_Ys8Jjh8UIl-30" vertex="1">
          <mxGeometry x="17" y="615" width="170" height="30" as="geometry" />
        </mxCell>
        <mxCell id="t-0MSepDz_Ys8Jjh8UIl-59" value="&lt;font style=&quot;font-size: 18px;&quot;&gt;Titre : Expérience pro&lt;/font&gt;" style="text;html=1;points=[];align=left;verticalAlign=top;spacingTop=-4;fontSize=15;fontFamily=Verdana" parent="t-0MSepDz_Ys8Jjh8UIl-30" vertex="1">
          <mxGeometry x="17" y="635" width="170" height="30" as="geometry" />
        </mxCell>
        <mxCell id="t-0MSepDz_Ys8Jjh8UIl-60" value="Expérience 1 en sous titre :&lt;br&gt;- ce que j&#39;ai fais&amp;nbsp;&lt;br&gt;- ce que j&#39;ai fais&lt;br&gt;Expérience 2 en sous titre :&lt;br style=&quot;border-color: var(--border-color);&quot;&gt;- ce que j&#39;ai fais&amp;nbsp;&lt;br style=&quot;border-color: var(--border-color);&quot;&gt;- ce que j&#39;ai fais" style="text;html=1;points=[];align=left;verticalAlign=top;spacingTop=-4;fontSize=15;fontFamily=Verdana" parent="t-0MSepDz_Ys8Jjh8UIl-30" vertex="1">
          <mxGeometry x="17" y="665" width="513" height="145" as="geometry" />
        </mxCell>
        <mxCell id="t-0MSepDz_Ys8Jjh8UIl-61" value="" style="rounded=0;whiteSpace=wrap;html=1;" parent="t-0MSepDz_Ys8Jjh8UIl-30" vertex="1">
          <mxGeometry x="540" y="615" width="523" height="200" as="geometry" />
        </mxCell>
        <mxCell id="t-0MSepDz_Ys8Jjh8UIl-62" value="Section 5" style="text;html=1;points=[];align=left;verticalAlign=top;spacingTop=-4;fontSize=15;fontFamily=Verdana" parent="t-0MSepDz_Ys8Jjh8UIl-30" vertex="1">
          <mxGeometry x="543" y="615" width="170" height="30" as="geometry" />
        </mxCell>
        <mxCell id="t-0MSepDz_Ys8Jjh8UIl-63" value="&lt;font style=&quot;font-size: 18px;&quot;&gt;Titre : Formation&lt;/font&gt;" style="text;html=1;points=[];align=left;verticalAlign=top;spacingTop=-4;fontSize=15;fontFamily=Verdana" parent="t-0MSepDz_Ys8Jjh8UIl-30" vertex="1">
          <mxGeometry x="543" y="635" width="170" height="30" as="geometry" />
        </mxCell>
        <mxCell id="t-0MSepDz_Ys8Jjh8UIl-64" value="Sous titre 1 formation actuelle&amp;nbsp;&lt;br&gt;- lieu et établissement&lt;br&gt;&lt;br&gt;Sous titre 2 formation plus récente&amp;nbsp;&lt;br style=&quot;border-color: var(--border-color);&quot;&gt;- lieu et établissement" style="text;html=1;points=[];align=left;verticalAlign=top;spacingTop=-4;fontSize=15;fontFamily=Verdana" parent="t-0MSepDz_Ys8Jjh8UIl-30" vertex="1">
          <mxGeometry x="543" y="665" width="513" height="145" as="geometry" />
        </mxCell>
        <mxCell id="t-0MSepDz_Ys8Jjh8UIl-65" value="" style="rounded=0;whiteSpace=wrap;html=1;" parent="t-0MSepDz_Ys8Jjh8UIl-30" vertex="1">
          <mxGeometry x="17.5" y="825" width="1042.5" height="75" as="geometry" />
        </mxCell>
        <mxCell id="t-0MSepDz_Ys8Jjh8UIl-66" value="&lt;font style=&quot;&quot;&gt;&lt;span style=&quot;font-size: 18px;&quot;&gt;Pied de page footer :&lt;/span&gt;&lt;br&gt;&lt;font style=&quot;font-size: 16px;&quot;&gt;Creative commons de ma page&lt;/font&gt;&lt;/font&gt;&lt;font style=&quot;font-size: 18px;&quot;&gt;&amp;nbsp;&lt;br&gt;&lt;/font&gt;" style="text;html=1;strokeColor=none;fillColor=none;align=center;verticalAlign=middle;whiteSpace=wrap;rounded=0;" parent="t-0MSepDz_Ys8Jjh8UIl-30" vertex="1">
          <mxGeometry x="308.5" y="838.75" width="455" height="47.5" as="geometry" />
        </mxCell>
        <mxCell id="t-0MSepDz_Ys8Jjh8UIl-67" value="Text" style="text;html=1;strokeColor=none;fillColor=none;align=center;verticalAlign=middle;whiteSpace=wrap;rounded=0;" parent="1" vertex="1">
          <mxGeometry x="1250" y="-120" width="60" height="30" as="geometry" />
        </mxCell>
        <mxCell id="t-0MSepDz_Ys8Jjh8UIl-68" value="" style="strokeWidth=1;shadow=0;dashed=0;align=center;html=1;shape=mxgraph.mockup.containers.browserWindow;rSize=0;strokeColor=#666666;mainText=,;recursiveResize=0;rounded=0;labelBackgroundColor=none;fontFamily=Verdana;fontSize=12" parent="1" vertex="1">
          <mxGeometry x="13" y="-1790" width="1075" height="915" as="geometry" />
        </mxCell>
        <mxCell id="ok_gMqsKIF0UNlrbJtwh-1" value="" style="whiteSpace=wrap;html=1;aspect=fixed;" parent="t-0MSepDz_Ys8Jjh8UIl-68" vertex="1">
          <mxGeometry x="97" y="290" width="261" height="261" as="geometry" />
        </mxCell>
        <mxCell id="t-0MSepDz_Ys8Jjh8UIl-71" value="Page 1 : index" style="strokeWidth=1;shadow=0;dashed=0;align=center;html=1;shape=mxgraph.mockup.containers.anchor;fontSize=17;fontColor=#666666;align=left;" parent="t-0MSepDz_Ys8Jjh8UIl-68" vertex="1">
          <mxGeometry x="60" y="12" width="110" height="26" as="geometry" />
        </mxCell>
        <mxCell id="t-0MSepDz_Ys8Jjh8UIl-72" value="http://127.0.0.1:8000/" style="strokeWidth=1;shadow=0;dashed=0;align=center;html=1;shape=mxgraph.mockup.containers.anchor;rSize=0;fontSize=17;fontColor=#666666;align=left;" parent="t-0MSepDz_Ys8Jjh8UIl-68" vertex="1">
          <mxGeometry x="130" y="60" width="250" height="26" as="geometry" />
        </mxCell>
        <mxCell id="t-0MSepDz_Ys8Jjh8UIl-73" value="&lt;font style=&quot;font-size: 28px;&quot;&gt;Titre: Général de bienvenue sur le site&lt;/font&gt;" style="text;html=1;points=[];align=left;verticalAlign=top;spacingTop=-4;fontSize=30;fontFamily=Verdana" parent="t-0MSepDz_Ys8Jjh8UIl-68" vertex="1">
          <mxGeometry x="30" y="190" width="860" height="50" as="geometry" />
        </mxCell>
        <mxCell id="t-0MSepDz_Ys8Jjh8UIl-77" value="" style="rounded=0;whiteSpace=wrap;html=1;" parent="t-0MSepDz_Ys8Jjh8UIl-68" vertex="1">
          <mxGeometry y="105" width="1070" height="75" as="geometry" />
        </mxCell>
        <mxCell id="t-0MSepDz_Ys8Jjh8UIl-80" value="&lt;font style=&quot;font-size: 32px;&quot;&gt;Navbar&lt;/font&gt;" style="rounded=0;whiteSpace=wrap;html=1;" parent="t-0MSepDz_Ys8Jjh8UIl-68" vertex="1">
          <mxGeometry x="5" y="112.5" width="145" height="60" as="geometry" />
        </mxCell>
        <mxCell id="t-0MSepDz_Ys8Jjh8UIl-81" value="" style="triangle;whiteSpace=wrap;html=1;rotation=90;fillColor=#647687;fontColor=#ffffff;strokeColor=#314354;" parent="t-0MSepDz_Ys8Jjh8UIl-68" vertex="1">
          <mxGeometry x="565" y="137.5" width="10" height="10" as="geometry" />
        </mxCell>
        <mxCell id="t-0MSepDz_Ys8Jjh8UIl-82" value="&lt;font style=&quot;font-size: 20px;&quot;&gt;DropDown&lt;/font&gt;" style="rounded=0;whiteSpace=wrap;html=1;" parent="t-0MSepDz_Ys8Jjh8UIl-68" vertex="1">
          <mxGeometry x="463" y="112.5" width="102" height="60" as="geometry" />
        </mxCell>
        <mxCell id="t-0MSepDz_Ys8Jjh8UIl-83" value="&lt;font style=&quot;font-size: 22px;&quot;&gt;Page supl 1&lt;br&gt;&lt;/font&gt;" style="rounded=0;whiteSpace=wrap;html=1;" parent="t-0MSepDz_Ys8Jjh8UIl-68" vertex="1">
          <mxGeometry x="177" y="112.5" width="120" height="60" as="geometry" />
        </mxCell>
        <mxCell id="t-0MSepDz_Ys8Jjh8UIl-84" value="&lt;font style=&quot;font-size: 22px;&quot;&gt;Page supl 2&amp;nbsp;&lt;/font&gt;" style="rounded=0;whiteSpace=wrap;html=1;" parent="t-0MSepDz_Ys8Jjh8UIl-68" vertex="1">
          <mxGeometry x="315" y="112.5" width="125" height="60" as="geometry" />
        </mxCell>
        <mxCell id="t-0MSepDz_Ys8Jjh8UIl-103" value="" style="rounded=0;whiteSpace=wrap;html=1;" parent="t-0MSepDz_Ys8Jjh8UIl-68" vertex="1">
          <mxGeometry x="17.5" y="825" width="1042.5" height="75" as="geometry" />
        </mxCell>
        <mxCell id="t-0MSepDz_Ys8Jjh8UIl-104" value="&lt;font style=&quot;&quot;&gt;&lt;span style=&quot;font-size: 18px;&quot;&gt;Pied de page footer :&lt;/span&gt;&lt;br&gt;&lt;font style=&quot;font-size: 16px;&quot;&gt;Creative commons de ma page&lt;/font&gt;&lt;/font&gt;&lt;font style=&quot;font-size: 18px;&quot;&gt;&amp;nbsp;&lt;br&gt;&lt;/font&gt;" style="text;html=1;strokeColor=none;fillColor=none;align=center;verticalAlign=middle;whiteSpace=wrap;rounded=0;" parent="t-0MSepDz_Ys8Jjh8UIl-68" vertex="1">
          <mxGeometry x="308.5" y="838.75" width="455" height="47.5" as="geometry" />
        </mxCell>
        <mxCell id="c42JllxmDrkgjZoQHSI8-1" value="&lt;font style=&quot;font-size: 22px;&quot;&gt;Titre: Cordonnée&lt;/font&gt;" style="text;html=1;points=[];align=left;verticalAlign=top;spacingTop=-4;fontSize=30;fontFamily=Verdana" parent="t-0MSepDz_Ys8Jjh8UIl-68" vertex="1">
          <mxGeometry x="122" y="320" width="205" height="50" as="geometry" />
        </mxCell>
        <mxCell id="c42JllxmDrkgjZoQHSI8-2" value="&lt;span style=&quot;font-size: 22px;&quot;&gt;-Téléphone&lt;br&gt;&lt;br&gt;-Mail&lt;br&gt;&lt;/span&gt;" style="text;html=1;points=[];align=left;verticalAlign=top;spacingTop=-4;fontSize=30;fontFamily=Verdana" parent="t-0MSepDz_Ys8Jjh8UIl-68" vertex="1">
          <mxGeometry x="137" y="375" width="143" height="140" as="geometry" />
        </mxCell>
        <mxCell id="c42JllxmDrkgjZoQHSI8-3" value="&lt;span style=&quot;font-size: 22px;&quot;&gt;Blabblsur la suite&lt;br&gt;&lt;/span&gt;" style="text;html=1;points=[];align=left;verticalAlign=top;spacingTop=-4;fontSize=30;fontFamily=Verdana" parent="t-0MSepDz_Ys8Jjh8UIl-68" vertex="1">
          <mxGeometry x="47" y="560" width="860" height="140" as="geometry" />
        </mxCell>
        <mxCell id="ok_gMqsKIF0UNlrbJtwh-2" value="&lt;font style=&quot;font-size: 18px;&quot;&gt;Container&lt;/font&gt;" style="text;html=1;strokeColor=none;fillColor=none;align=center;verticalAlign=middle;whiteSpace=wrap;rounded=0;" parent="t-0MSepDz_Ys8Jjh8UIl-68" vertex="1">
          <mxGeometry x="97" y="290" width="90" height="30" as="geometry" />
        </mxCell>
        <mxCell id="ok_gMqsKIF0UNlrbJtwh-3" value="&lt;font style=&quot;font-size: 18px;&quot;&gt;Bouton en savoir plus&lt;/font&gt;" style="rounded=0;whiteSpace=wrap;html=1;" parent="t-0MSepDz_Ys8Jjh8UIl-68" vertex="1">
          <mxGeometry x="117" y="630" width="120" height="60" as="geometry" />
        </mxCell>
        <mxCell id="PBdtkd81JDV2ZIQKBgxu-1" value="" style="strokeWidth=1;shadow=0;dashed=0;align=center;html=1;shape=mxgraph.mockup.containers.browserWindow;rSize=0;strokeColor=#666666;mainText=,;recursiveResize=0;rounded=0;labelBackgroundColor=none;fontFamily=Verdana;fontSize=12" vertex="1" parent="1">
          <mxGeometry x="13" y="2083" width="1075" height="915" as="geometry" />
        </mxCell>
        <mxCell id="PBdtkd81JDV2ZIQKBgxu-4" value="Page 7 : Plus" style="strokeWidth=1;shadow=0;dashed=0;align=center;html=1;shape=mxgraph.mockup.containers.anchor;fontSize=17;fontColor=#666666;align=left;" vertex="1" parent="PBdtkd81JDV2ZIQKBgxu-1">
          <mxGeometry x="60" y="12" width="110" height="26" as="geometry" />
        </mxCell>
        <mxCell id="PBdtkd81JDV2ZIQKBgxu-5" value="http://127.0.0.1:8000/Plus" style="strokeWidth=1;shadow=0;dashed=0;align=center;html=1;shape=mxgraph.mockup.containers.anchor;rSize=0;fontSize=17;fontColor=#666666;align=left;" vertex="1" parent="PBdtkd81JDV2ZIQKBgxu-1">
          <mxGeometry x="130" y="60" width="250" height="26" as="geometry" />
        </mxCell>
        <mxCell id="PBdtkd81JDV2ZIQKBgxu-6" value="&lt;span style=&quot;font-size: 24px;&quot;&gt;Titre de la page&lt;/span&gt;" style="text;html=1;points=[];align=center;verticalAlign=top;spacingTop=-4;fontSize=30;fontFamily=Verdana" vertex="1" parent="PBdtkd81JDV2ZIQKBgxu-1">
          <mxGeometry x="365" y="200" width="340" height="50" as="geometry" />
        </mxCell>
        <mxCell id="PBdtkd81JDV2ZIQKBgxu-10" value="" style="rounded=0;whiteSpace=wrap;html=1;" vertex="1" parent="PBdtkd81JDV2ZIQKBgxu-1">
          <mxGeometry y="105" width="1070" height="75" as="geometry" />
        </mxCell>
        <mxCell id="PBdtkd81JDV2ZIQKBgxu-11" value="&lt;font style=&quot;font-size: 32px;&quot;&gt;Navbar&lt;/font&gt;" style="rounded=0;whiteSpace=wrap;html=1;" vertex="1" parent="PBdtkd81JDV2ZIQKBgxu-1">
          <mxGeometry x="5" y="112.5" width="145" height="60" as="geometry" />
        </mxCell>
        <mxCell id="PBdtkd81JDV2ZIQKBgxu-12" value="" style="triangle;whiteSpace=wrap;html=1;rotation=90;fillColor=#647687;fontColor=#ffffff;strokeColor=#314354;" vertex="1" parent="PBdtkd81JDV2ZIQKBgxu-1">
          <mxGeometry x="565" y="137.5" width="10" height="10" as="geometry" />
        </mxCell>
        <mxCell id="PBdtkd81JDV2ZIQKBgxu-13" value="&lt;font style=&quot;font-size: 20px;&quot;&gt;DropDown&lt;/font&gt;" style="rounded=0;whiteSpace=wrap;html=1;" vertex="1" parent="PBdtkd81JDV2ZIQKBgxu-1">
          <mxGeometry x="463" y="112.5" width="102" height="60" as="geometry" />
        </mxCell>
        <mxCell id="PBdtkd81JDV2ZIQKBgxu-14" value="&lt;font style=&quot;font-size: 22px;&quot;&gt;Page supl 1&lt;/font&gt;" style="rounded=0;whiteSpace=wrap;html=1;" vertex="1" parent="PBdtkd81JDV2ZIQKBgxu-1">
          <mxGeometry x="177" y="112.5" width="120" height="60" as="geometry" />
        </mxCell>
        <mxCell id="PBdtkd81JDV2ZIQKBgxu-15" value="&lt;font style=&quot;font-size: 22px;&quot;&gt;Page supl 2 (cv)&lt;/font&gt;" style="rounded=0;whiteSpace=wrap;html=1;" vertex="1" parent="PBdtkd81JDV2ZIQKBgxu-1">
          <mxGeometry x="315" y="112.5" width="120" height="60" as="geometry" />
        </mxCell>
        <mxCell id="PBdtkd81JDV2ZIQKBgxu-16" value="&lt;span style=&quot;font-size: 20px;&quot;&gt;Demande&lt;/span&gt;" style="text;html=1;points=[];align=center;verticalAlign=top;spacingTop=-4;fontSize=12;fontFamily=Verdana;whiteSpace=wrap;" vertex="1" parent="PBdtkd81JDV2ZIQKBgxu-1">
          <mxGeometry x="415" y="260" width="240" height="40" as="geometry" />
        </mxCell>
        <mxCell id="PBdtkd81JDV2ZIQKBgxu-34" value="" style="rounded=0;whiteSpace=wrap;html=1;" vertex="1" parent="PBdtkd81JDV2ZIQKBgxu-1">
          <mxGeometry x="17.5" y="825" width="1042.5" height="75" as="geometry" />
        </mxCell>
        <mxCell id="PBdtkd81JDV2ZIQKBgxu-35" value="&lt;font style=&quot;&quot;&gt;&lt;span style=&quot;font-size: 18px;&quot;&gt;Pied de page footer :&lt;/span&gt;&lt;br&gt;&lt;font style=&quot;font-size: 16px;&quot;&gt;Creative commons de ma page&lt;/font&gt;&lt;/font&gt;&lt;font style=&quot;font-size: 18px;&quot;&gt;&amp;nbsp;&lt;br&gt;&lt;/font&gt;" style="text;html=1;strokeColor=none;fillColor=none;align=center;verticalAlign=middle;whiteSpace=wrap;rounded=0;" vertex="1" parent="PBdtkd81JDV2ZIQKBgxu-1">
          <mxGeometry x="308.5" y="838.75" width="455" height="47.5" as="geometry" />
        </mxCell>
        <mxCell id="PBdtkd81JDV2ZIQKBgxu-38" value="" style="rounded=1;whiteSpace=wrap;html=1;" vertex="1" parent="PBdtkd81JDV2ZIQKBgxu-1">
          <mxGeometry x="341" y="300" width="391.5" height="520" as="geometry" />
        </mxCell>
        <mxCell id="PBdtkd81JDV2ZIQKBgxu-39" value="" style="rounded=0;whiteSpace=wrap;html=1;" vertex="1" parent="PBdtkd81JDV2ZIQKBgxu-1">
          <mxGeometry x="372.5" y="340" width="330" height="30" as="geometry" />
        </mxCell>
        <mxCell id="PBdtkd81JDV2ZIQKBgxu-41" value="&lt;span style=&quot;font-size: 20px;&quot;&gt;INFO 1&lt;/span&gt;" style="text;html=1;points=[];align=center;verticalAlign=top;spacingTop=-4;fontSize=12;fontFamily=Verdana;whiteSpace=wrap;" vertex="1" parent="PBdtkd81JDV2ZIQKBgxu-1">
          <mxGeometry x="417.5" y="310" width="240" height="40" as="geometry" />
        </mxCell>
        <mxCell id="PBdtkd81JDV2ZIQKBgxu-42" value="" style="rounded=0;whiteSpace=wrap;html=1;" vertex="1" parent="PBdtkd81JDV2ZIQKBgxu-1">
          <mxGeometry x="372" y="420" width="330" height="30" as="geometry" />
        </mxCell>
        <mxCell id="PBdtkd81JDV2ZIQKBgxu-43" value="&lt;span style=&quot;font-size: 20px;&quot;&gt;INFO 2&lt;/span&gt;" style="text;html=1;points=[];align=center;verticalAlign=top;spacingTop=-4;fontSize=12;fontFamily=Verdana;whiteSpace=wrap;" vertex="1" parent="PBdtkd81JDV2ZIQKBgxu-1">
          <mxGeometry x="417" y="390" width="240" height="40" as="geometry" />
        </mxCell>
        <mxCell id="PBdtkd81JDV2ZIQKBgxu-44" value="" style="rounded=0;whiteSpace=wrap;html=1;" vertex="1" parent="PBdtkd81JDV2ZIQKBgxu-1">
          <mxGeometry x="372.5" y="500" width="330" height="30" as="geometry" />
        </mxCell>
        <mxCell id="PBdtkd81JDV2ZIQKBgxu-45" value="&lt;span style=&quot;font-size: 20px;&quot;&gt;INFO 3&lt;/span&gt;" style="text;html=1;points=[];align=center;verticalAlign=top;spacingTop=-4;fontSize=12;fontFamily=Verdana;whiteSpace=wrap;" vertex="1" parent="PBdtkd81JDV2ZIQKBgxu-1">
          <mxGeometry x="417.5" y="470" width="240" height="40" as="geometry" />
        </mxCell>
        <mxCell id="PBdtkd81JDV2ZIQKBgxu-46" value="" style="rounded=0;whiteSpace=wrap;html=1;" vertex="1" parent="PBdtkd81JDV2ZIQKBgxu-1">
          <mxGeometry x="372" y="587" width="330" height="30" as="geometry" />
        </mxCell>
        <mxCell id="PBdtkd81JDV2ZIQKBgxu-47" value="&lt;span style=&quot;font-size: 20px;&quot;&gt;INFO 4&lt;/span&gt;" style="text;html=1;points=[];align=center;verticalAlign=top;spacingTop=-4;fontSize=12;fontFamily=Verdana;whiteSpace=wrap;" vertex="1" parent="PBdtkd81JDV2ZIQKBgxu-1">
          <mxGeometry x="417" y="553" width="240" height="40" as="geometry" />
        </mxCell>
        <mxCell id="PBdtkd81JDV2ZIQKBgxu-48" value="" style="rounded=0;whiteSpace=wrap;html=1;" vertex="1" parent="PBdtkd81JDV2ZIQKBgxu-1">
          <mxGeometry x="372.5" y="674" width="330" height="30" as="geometry" />
        </mxCell>
        <mxCell id="PBdtkd81JDV2ZIQKBgxu-49" value="&lt;span style=&quot;font-size: 20px;&quot;&gt;INFO 5&lt;/span&gt;" style="text;html=1;points=[];align=center;verticalAlign=top;spacingTop=-4;fontSize=12;fontFamily=Verdana;whiteSpace=wrap;" vertex="1" parent="PBdtkd81JDV2ZIQKBgxu-1">
          <mxGeometry x="417.5" y="640" width="240" height="40" as="geometry" />
        </mxCell>
        <mxCell id="PBdtkd81JDV2ZIQKBgxu-50" value="&lt;font style=&quot;font-size: 17px;&quot;&gt;Bouton soumettre formulaire + java script téléchargement cv&lt;/font&gt;" style="rounded=1;whiteSpace=wrap;html=1;fillColor=#d5e8d4;strokeColor=#82b366;" vertex="1" parent="PBdtkd81JDV2ZIQKBgxu-1">
          <mxGeometry x="430" y="730" width="230" height="60" as="geometry" />
        </mxCell>
        <mxCell id="PBdtkd81JDV2ZIQKBgxu-51" value="&lt;span style=&quot;font-size: 16px;&quot;&gt;Form&lt;/span&gt;" style="text;html=1;strokeColor=none;fillColor=none;align=center;verticalAlign=middle;whiteSpace=wrap;rounded=0;" vertex="1" parent="PBdtkd81JDV2ZIQKBgxu-1">
          <mxGeometry x="370" y="300" width="60" height="30" as="geometry" />
        </mxCell>
        <mxCell id="PBdtkd81JDV2ZIQKBgxu-78" value="" style="strokeWidth=1;shadow=0;dashed=0;align=center;html=1;shape=mxgraph.mockup.containers.browserWindow;rSize=0;strokeColor=#666666;mainText=,;recursiveResize=0;rounded=0;labelBackgroundColor=none;fontFamily=Verdana;fontSize=12" vertex="1" parent="1">
          <mxGeometry x="13" y="1108" width="1075" height="915" as="geometry" />
        </mxCell>
        <mxCell id="PBdtkd81JDV2ZIQKBgxu-107" value="" style="rounded=0;whiteSpace=wrap;html=1;fillColor=#d0cee2;strokeColor=#56517e;" vertex="1" parent="PBdtkd81JDV2ZIQKBgxu-78">
          <mxGeometry x="68.75" y="286" width="940" height="50" as="geometry" />
        </mxCell>
        <mxCell id="PBdtkd81JDV2ZIQKBgxu-105" value="" style="rounded=0;whiteSpace=wrap;html=1;fillColor=#ffe6cc;strokeColor=#d79b00;" vertex="1" parent="PBdtkd81JDV2ZIQKBgxu-78">
          <mxGeometry x="332" y="195" width="410" height="60" as="geometry" />
        </mxCell>
        <mxCell id="PBdtkd81JDV2ZIQKBgxu-79" value="Page 4/5/6 : Compé" style="strokeWidth=1;shadow=0;dashed=0;align=center;html=1;shape=mxgraph.mockup.containers.anchor;fontSize=17;fontColor=#666666;align=left;" vertex="1" parent="PBdtkd81JDV2ZIQKBgxu-78">
          <mxGeometry x="27" y="12" width="150" height="26" as="geometry" />
        </mxCell>
        <mxCell id="PBdtkd81JDV2ZIQKBgxu-80" value="http://127.0.0.1:8000/Compétence" style="strokeWidth=1;shadow=0;dashed=0;align=center;html=1;shape=mxgraph.mockup.containers.anchor;rSize=0;fontSize=17;fontColor=#666666;align=left;" vertex="1" parent="PBdtkd81JDV2ZIQKBgxu-78">
          <mxGeometry x="130" y="60" width="250" height="26" as="geometry" />
        </mxCell>
        <mxCell id="PBdtkd81JDV2ZIQKBgxu-81" value="&lt;span style=&quot;font-size: 24px;&quot;&gt;Compétence de la formation&lt;/span&gt;" style="text;html=1;points=[];align=center;verticalAlign=top;spacingTop=-4;fontSize=30;fontFamily=Verdana;" vertex="1" parent="PBdtkd81JDV2ZIQKBgxu-78">
          <mxGeometry x="365" y="205" width="340" height="50" as="geometry" />
        </mxCell>
        <mxCell id="PBdtkd81JDV2ZIQKBgxu-82" value="" style="rounded=0;whiteSpace=wrap;html=1;" vertex="1" parent="PBdtkd81JDV2ZIQKBgxu-78">
          <mxGeometry y="105" width="1070" height="75" as="geometry" />
        </mxCell>
        <mxCell id="PBdtkd81JDV2ZIQKBgxu-83" value="&lt;font style=&quot;font-size: 32px;&quot;&gt;Navbar&lt;/font&gt;" style="rounded=0;whiteSpace=wrap;html=1;" vertex="1" parent="PBdtkd81JDV2ZIQKBgxu-78">
          <mxGeometry x="5" y="112.5" width="145" height="60" as="geometry" />
        </mxCell>
        <mxCell id="PBdtkd81JDV2ZIQKBgxu-84" value="" style="triangle;whiteSpace=wrap;html=1;rotation=90;fillColor=#647687;fontColor=#ffffff;strokeColor=#314354;" vertex="1" parent="PBdtkd81JDV2ZIQKBgxu-78">
          <mxGeometry x="565" y="137.5" width="10" height="10" as="geometry" />
        </mxCell>
        <mxCell id="PBdtkd81JDV2ZIQKBgxu-85" value="&lt;font style=&quot;font-size: 20px;&quot;&gt;DropDown&lt;/font&gt;" style="rounded=0;whiteSpace=wrap;html=1;" vertex="1" parent="PBdtkd81JDV2ZIQKBgxu-78">
          <mxGeometry x="463" y="112.5" width="102" height="60" as="geometry" />
        </mxCell>
        <mxCell id="PBdtkd81JDV2ZIQKBgxu-86" value="&lt;font style=&quot;font-size: 22px;&quot;&gt;Page supl 1&lt;/font&gt;" style="rounded=0;whiteSpace=wrap;html=1;" vertex="1" parent="PBdtkd81JDV2ZIQKBgxu-78">
          <mxGeometry x="177" y="112.5" width="120" height="60" as="geometry" />
        </mxCell>
        <mxCell id="PBdtkd81JDV2ZIQKBgxu-87" value="&lt;font style=&quot;font-size: 22px;&quot;&gt;Page supl 2 (cv)&lt;/font&gt;" style="rounded=0;whiteSpace=wrap;html=1;" vertex="1" parent="PBdtkd81JDV2ZIQKBgxu-78">
          <mxGeometry x="315" y="112.5" width="120" height="60" as="geometry" />
        </mxCell>
        <mxCell id="PBdtkd81JDV2ZIQKBgxu-88" value="&lt;span style=&quot;font-size: 20px;&quot;&gt;Capacité / compétence / savoir / savoir être&lt;/span&gt;" style="text;html=1;points=[];align=center;verticalAlign=top;spacingTop=-4;fontSize=12;fontFamily=Verdana;whiteSpace=wrap;" vertex="1" parent="PBdtkd81JDV2ZIQKBgxu-78">
          <mxGeometry x="256.25" y="291" width="565" height="40" as="geometry" />
        </mxCell>
        <mxCell id="PBdtkd81JDV2ZIQKBgxu-89" value="" style="rounded=0;whiteSpace=wrap;html=1;" vertex="1" parent="PBdtkd81JDV2ZIQKBgxu-78">
          <mxGeometry x="17.5" y="825" width="1042.5" height="75" as="geometry" />
        </mxCell>
        <mxCell id="PBdtkd81JDV2ZIQKBgxu-90" value="&lt;font style=&quot;&quot;&gt;&lt;span style=&quot;font-size: 18px;&quot;&gt;Pied de page footer :&lt;/span&gt;&lt;br&gt;&lt;font style=&quot;font-size: 16px;&quot;&gt;Creative commons de ma page&lt;/font&gt;&lt;/font&gt;&lt;font style=&quot;font-size: 18px;&quot;&gt;&amp;nbsp;&lt;br&gt;&lt;/font&gt;" style="text;html=1;strokeColor=none;fillColor=none;align=center;verticalAlign=middle;whiteSpace=wrap;rounded=0;" vertex="1" parent="PBdtkd81JDV2ZIQKBgxu-78">
          <mxGeometry x="308.5" y="838.75" width="455" height="47.5" as="geometry" />
        </mxCell>
        <mxCell id="PBdtkd81JDV2ZIQKBgxu-106" value="&lt;font style=&quot;font-size: 18px;&quot;&gt;header&lt;/font&gt;" style="text;html=1;strokeColor=none;fillColor=none;align=center;verticalAlign=middle;whiteSpace=wrap;rounded=0;" vertex="1" parent="PBdtkd81JDV2ZIQKBgxu-78">
          <mxGeometry x="332" y="189" width="60" height="30" as="geometry" />
        </mxCell>
        <mxCell id="PBdtkd81JDV2ZIQKBgxu-108" value="" style="triangle;whiteSpace=wrap;html=1;rotation=-90;fillColor=#f5f5f5;gradientColor=#b3b3b3;strokeColor=#666666;" vertex="1" parent="PBdtkd81JDV2ZIQKBgxu-78">
          <mxGeometry x="867" y="298.5" width="25" height="25" as="geometry" />
        </mxCell>
        <mxCell id="PBdtkd81JDV2ZIQKBgxu-109" value="&lt;font style=&quot;font-size: 15px;&quot;&gt;Div interactive bootswatch&lt;/font&gt;" style="text;html=1;strokeColor=none;fillColor=none;align=center;verticalAlign=middle;whiteSpace=wrap;rounded=0;" vertex="1" parent="PBdtkd81JDV2ZIQKBgxu-78">
          <mxGeometry x="68.75" y="286" width="180" height="30" as="geometry" />
        </mxCell>
        <mxCell id="PBdtkd81JDV2ZIQKBgxu-116" value="&lt;font style=&quot;font-size: 16px;&quot;&gt;* Détail 1&lt;br&gt;&lt;br&gt;* Détail2&lt;br&gt;&lt;br&gt;* ...&lt;br&gt;&lt;br&gt;* img&lt;/font&gt;" style="text;html=1;strokeColor=none;fillColor=none;align=left;verticalAlign=middle;whiteSpace=wrap;rounded=0;" vertex="1" parent="PBdtkd81JDV2ZIQKBgxu-78">
          <mxGeometry x="268.5" y="352" width="511.5" height="138" as="geometry" />
        </mxCell>
        <mxCell id="PBdtkd81JDV2ZIQKBgxu-117" value="" style="rounded=0;whiteSpace=wrap;html=1;fillColor=#d0cee2;strokeColor=#56517e;" vertex="1" parent="PBdtkd81JDV2ZIQKBgxu-78">
          <mxGeometry x="67" y="504" width="940" height="50" as="geometry" />
        </mxCell>
        <mxCell id="PBdtkd81JDV2ZIQKBgxu-118" value="&lt;span style=&quot;font-size: 20px;&quot;&gt;Capacité / compétence / savoir / savoir être&lt;/span&gt;" style="text;html=1;points=[];align=center;verticalAlign=top;spacingTop=-4;fontSize=12;fontFamily=Verdana;whiteSpace=wrap;" vertex="1" parent="PBdtkd81JDV2ZIQKBgxu-78">
          <mxGeometry x="254.5" y="509" width="565" height="40" as="geometry" />
        </mxCell>
        <mxCell id="PBdtkd81JDV2ZIQKBgxu-119" value="" style="triangle;whiteSpace=wrap;html=1;rotation=90;fillColor=#f5f5f5;gradientColor=#b3b3b3;strokeColor=#666666;" vertex="1" parent="PBdtkd81JDV2ZIQKBgxu-78">
          <mxGeometry x="865.25" y="516.5" width="25" height="25" as="geometry" />
        </mxCell>
        <mxCell id="PBdtkd81JDV2ZIQKBgxu-120" value="&lt;font style=&quot;font-size: 15px;&quot;&gt;Div interactive bootswatch&lt;/font&gt;" style="text;html=1;strokeColor=none;fillColor=none;align=center;verticalAlign=middle;whiteSpace=wrap;rounded=0;" vertex="1" parent="PBdtkd81JDV2ZIQKBgxu-78">
          <mxGeometry x="67" y="504" width="180" height="30" as="geometry" />
        </mxCell>
        <mxCell id="PBdtkd81JDV2ZIQKBgxu-125" value="" style="rounded=0;whiteSpace=wrap;html=1;fillColor=none;" vertex="1" parent="PBdtkd81JDV2ZIQKBgxu-78">
          <mxGeometry x="68.75" y="336" width="941.25" height="154" as="geometry" />
        </mxCell>
        <mxCell id="PBdtkd81JDV2ZIQKBgxu-121" value="" style="rounded=0;whiteSpace=wrap;html=1;fillColor=#d0cee2;strokeColor=#56517e;" vertex="1" parent="1">
          <mxGeometry x="80.75" y="1680" width="940" height="50" as="geometry" />
        </mxCell>
        <mxCell id="PBdtkd81JDV2ZIQKBgxu-122" value="&lt;span style=&quot;font-size: 20px;&quot;&gt;Capacité / compétence / savoir / savoir être&lt;/span&gt;" style="text;html=1;points=[];align=center;verticalAlign=top;spacingTop=-4;fontSize=12;fontFamily=Verdana;whiteSpace=wrap;" vertex="1" parent="1">
          <mxGeometry x="268.25" y="1685" width="565" height="40" as="geometry" />
        </mxCell>
        <mxCell id="PBdtkd81JDV2ZIQKBgxu-123" value="" style="triangle;whiteSpace=wrap;html=1;rotation=90;fillColor=#f5f5f5;gradientColor=#b3b3b3;strokeColor=#666666;" vertex="1" parent="1">
          <mxGeometry x="879" y="1692.5" width="25" height="25" as="geometry" />
        </mxCell>
        <mxCell id="PBdtkd81JDV2ZIQKBgxu-124" value="&lt;font style=&quot;font-size: 15px;&quot;&gt;Div interactive bootswatch&lt;/font&gt;" style="text;html=1;strokeColor=none;fillColor=none;align=center;verticalAlign=middle;whiteSpace=wrap;rounded=0;" vertex="1" parent="1">
          <mxGeometry x="80.75" y="1680" width="180" height="30" as="geometry" />
        </mxCell>
      </root>
    </mxGraphModel>
  </diagram>
</mxfile>
